<?xml version="1.0" encoding="UTF-8" standalone="no"?>
<svg
   xmlns:dc="http://purl.org/dc/elements/1.1/"
   xmlns:cc="http://creativecommons.org/ns#"
   xmlns:rdf="http://www.w3.org/1999/02/22-rdf-syntax-ns#"
   xmlns:svg="http://www.w3.org/2000/svg"
   xmlns="http://www.w3.org/2000/svg"
   xmlns:sodipodi="http://sodipodi.sourceforge.net/DTD/sodipodi-0.dtd"
   xmlns:inkscape="http://www.inkscape.org/namespaces/inkscape"
   version="1.1"
   id="svg2"
   xml:space="preserve"
   width="666.66669"
   height="496.81332"
   viewBox="0 0 666.66669 496.81332"
   sodipodi:docname="graphics.eps"><metadata
     id="metadata8"><rdf:RDF><cc:Work
         rdf:about=""><dc:format>image/svg+xml</dc:format><dc:type
           rdf:resource="http://purl.org/dc/dcmitype/StillImage" /></cc:Work></rdf:RDF></metadata><defs
     id="defs6"><clipPath
       clipPathUnits="userSpaceOnUse"
       id="clipPath100"><path
         d="M 3796.63,1570.27 H 1699.78 c -18.65,0 -33,15.17 -31.97,33.83 l 24.87,452.82 c 10.56,0 20.63,0 30.07,0 18.88,139.77 27.82,249.59 30.67,335.62 7.27,-4.36 11.62,-6.71 11.62,-6.71 l 15.72,18.42 c 12.26,-13.19 25.04,-26.07 38.55,-38.52 -0.06,-0.54 -0.11,-1.09 -0.14,-1.64 -0.79,-14.51 10.43,-26.38 24.94,-26.38 2.33,0 4.62,0.31 6.81,0.88 0.49,-0.39 0.98,-0.78 1.47,-1.17 10.35,-8.15 21.24,-15.96 32.69,-23.38 l 8.67,-5.49 c 5.56,-3.41 12.68,-6.98 19.43,-8.97 9.14,-2.91 18.08,-4.02 26.29,-4.02 4.2,0 8.21,0.29 11.95,0.78 22.12,3.25 37.19,11.09 50.45,18.73 13.19,7.78 24.14,16.51 34.37,25.3 38.81,34.37 67.44,71.67 93.3,112.75 12.64,2.03 22.87,12.97 23.59,26.04 0.8,14.51 -10.42,26.39 -24.93,26.39 h -186.06 c -14.51,0 -27.03,-11.88 -27.83,-26.39 -0.8,-14.51 10.42,-26.39 24.94,-26.39 h 103.17 c -19.5,-15.65 -39.21,-30.27 -58.56,-42.27 -8.73,-5.38 -17.54,-9.84 -25.29,-13.13 -4.13,-1.79 -8.16,-2.98 -11.23,-3.57 l -4.54,3.41 c -7.98,6.11 -15.89,12.73 -23.63,19.88 -15.98,14.45 -31.37,30.42 -46.25,47.32 3.09,4.22 5.05,9.3 5.34,14.75 0.57,10.32 -4.94,19.31 -13.39,23.64 l 15.92,18.65 v 0 c 0,0 -13.6,20.61 -35.58,49.14 3.43,-1.76 7.35,-2.75 11.54,-2.75 14.51,0 27.04,11.88 27.84,26.39 0.79,14.51 -10.43,26.38 -24.94,26.38 -14.51,0 -27.04,-11.87 -27.83,-26.38 -0.15,-2.58 0.09,-5.08 0.66,-7.44 -19.56,24.39 -43.72,52.27 -69.95,77.44 -12.36,11.86 -24.08,19.91 -35.13,24.76 l 9.66,175.83 c 1.03,18.65 17.03,33.82 35.69,33.82 H 3869.6 c 18.65,0 32.99,-15.17 31.96,-33.82 L 3832.31,1604.1 c -1.02,-18.66 -17.03,-33.83 -35.68,-33.83 M 2456.51,2230.4 h 655.91 c 15.87,0 28.03,-12.87 27.16,-28.74 l -31.53,-573.86 c -0.12,-2.24 1.6,-4.06 3.84,-4.06 2.24,0 4.16,1.82 4.28,4.06 l 31.53,573.86 c 0.87,15.87 14.44,28.74 30.31,28.74 h 631.17 c 2.25,0 4.16,1.81 4.28,4.06 0.13,2.24 -1.59,4.06 -3.83,4.06 h -631.17 c -15.87,0 -28.03,12.86 -27.16,28.73 l 31.52,573.86 c 0.13,2.24 -1.59,4.06 -3.83,4.06 -2.25,0 -4.16,-1.82 -4.29,-4.06 l -31.52,-573.86 c -0.87,-15.87 -14.44,-28.73 -30.32,-28.73 h -655.9 c -15.88,0 -28.03,12.86 -27.16,28.73 l 31.52,573.86 c 0.12,2.24 -1.59,4.06 -3.84,4.06 -2.24,0 -4.16,-1.82 -4.28,-4.06 l -31.52,-573.86 c -0.66,-11.98 -8.56,-22.25 -19.22,-26.56 l 11.17,203.47 h -253.52 l -2.95,-53.68 h -42.73 c -14.51,0 -27.04,-11.88 -27.83,-26.39 -0.8,-14.51 10.42,-26.38 24.93,-26.38 h 42.73 l -5.45,-99.19 h -388.62 c -2.24,0 -4.16,-1.82 -4.28,-4.06 -0.12,-2.25 1.59,-4.06 3.84,-4.06 h 388.62 l -2.42,-44.08 253.15,-6.77 2.67,48.68 c 10.19,-4.31 16.96,-14.58 16.31,-26.57 l -31.53,-573.86 c -0.12,-2.24 1.6,-4.06 3.84,-4.06 2.24,0 4.16,1.82 4.28,4.06 l 31.52,573.86 c 0.88,15.87 14.45,28.74 30.32,28.74 m -579.76,-112.54 -42,-416.35 466.92,-28.8 43.1,427.27 -468.02,17.88 m 1209.42,451.05 -253.85,-19.35 5.57,-257.09 253.99,12.61 -5.71,263.83 m -559.15,172.25 -14.17,-257.84 253.16,-6.76 14.53,264.6 h -253.52 m -578.55,-120.55 c -14.52,0 -27.04,-11.87 -27.84,-26.38 -0.8,-14.51 10.42,-26.39 24.94,-26.39 h 382.25 c 14.51,0 27.03,11.88 27.83,26.39 0.8,14.51 -10.42,26.38 -24.94,26.38 h -382.24 m 6.32,115.07 c -14.52,0 -27.04,-11.88 -27.84,-26.39 -0.8,-14.51 10.43,-26.38 24.94,-26.38 h 324.74 c 14.51,0 27.04,11.87 27.83,26.38 0.8,14.51 -10.42,26.39 -24.93,26.39 h -324.74 m -88.82,0 c -14.51,0 -27.04,-11.88 -27.83,-26.39 -0.8,-14.51 10.42,-26.38 24.93,-26.38 14.51,0 27.04,11.87 27.84,26.38 0.79,14.51 -10.43,26.39 -24.94,26.39 m 77.62,-342.32 c -0.68,0 -1.19,0.07 -1.48,0.23 -0.48,0.24 -0.04,0.53 1.11,0.53 0.54,0 1.23,-0.06 2.07,-0.22 0.29,-0.07 0.65,-0.17 1.03,-0.28 -1.08,-0.17 -2.01,-0.26 -2.73,-0.26"
         id="path98" /></clipPath></defs><sodipodi:namedview
     pagecolor="#ffffff"
     bordercolor="#666666"
     borderopacity="1"
     objecttolerance="10"
     gridtolerance="10"
     guidetolerance="10"
     inkscape:pageopacity="0"
     inkscape:pageshadow="2"
     inkscape:window-width="640"
     inkscape:window-height="480"
     id="namedview4" /><g
     id="g10"
     inkscape:groupmode="layer"
     inkscape:label="ink_ext_XXXXXX"
     transform="matrix(1.3333333,0,0,-1.3333333,0,496.81333)"><g
       id="g12"
       transform="scale(0.1)"><path
         d="M 5000,449.129 H 0 v 2.5 h 5000 v -2.5"
         style="fill:#e7e8e5;fill-opacity:1;fill-rule:nonzero;stroke:none"
         id="path14" /><path
         d="m 524.59,353.898 h 779.082 v 2.5 H 524.59 Z"
         style="fill:#e7e8e5;fill-opacity:1;fill-rule:nonzero;stroke:none"
         id="path16" /><path
         d="m 4120,280.34 h 379.01 v -2.5 H 4120 v 2.5"
         style="fill:#e7e8e5;fill-opacity:1;fill-rule:nonzero;stroke:none"
         id="path18" /><path
         d="m 1505.6,261.039 h -191.92 v 2.5 h 191.92 v -2.5"
         style="fill:#e7e8e5;fill-opacity:1;fill-rule:nonzero;stroke:none"
         id="path20" /><path
         d="m 2021.67,383.531 h 431.93 v -2.5 h -431.93 v 2.5"
         style="fill:#e7e8e5;fill-opacity:1;fill-rule:nonzero;stroke:none"
         id="path22" /><path
         d="m 2542.63,383.531 h 63.33 v -2.5 h -63.33 v 2.5"
         style="fill:#e7e8e5;fill-opacity:1;fill-rule:nonzero;stroke:none"
         id="path24" /><path
         d="m 3708.89,320.059 h -432.22 v 2.5 h 432.22 v -2.5"
         style="fill:#e7e8e5;fill-opacity:1;fill-rule:nonzero;stroke:none"
         id="path26" /><path
         d="m 439.152,3723.59 c -30.101,0 -54.582,-24.48 -54.582,-54.57 V 954.699 c 0,-30.097 24.481,-54.578 54.582,-54.578 H 2370.14 c 30.09,0 54.57,24.481 54.57,54.578 V 3669.02 c 0,30.09 -24.48,54.57 -54.57,54.57 H 439.152 M 2370.14,897.621 H 439.152 c -31.476,0 -57.082,25.598 -57.082,57.078 V 3669.02 c 0,31.46 25.606,57.07 57.082,57.07 H 2370.14 c 31.46,0 57.07,-25.61 57.07,-57.07 V 954.699 c 0,-31.48 -25.61,-57.078 -57.07,-57.078"
         style="fill:#e7e8e5;fill-opacity:1;fill-rule:nonzero;stroke:none"
         id="path28" /><path
         d="m 2602.12,3723.59 c -30.09,0 -54.57,-24.48 -54.57,-54.57 V 954.699 c 0,-30.097 24.48,-54.578 54.57,-54.578 H 4533.1 c 30.1,0 54.59,24.481 54.59,54.578 V 3669.02 c 0,30.09 -24.49,54.57 -54.59,54.57 H 2602.12 M 4533.1,897.621 H 2602.12 c -31.47,0 -57.07,25.598 -57.07,57.078 V 3669.02 c 0,31.46 25.6,57.07 57.07,57.07 H 4533.1 c 31.48,0 57.09,-25.61 57.09,-57.07 V 954.699 c 0,-31.48 -25.61,-57.078 -57.09,-57.078"
         style="fill:#e7e8e5;fill-opacity:1;fill-rule:nonzero;stroke:none"
         id="path30" /><path
         d="M 1328.67,680.242 H 837.348 c -21.907,0 -40.493,16.059 -43.664,37.738 L 670.699,1558.7 c -3.894,26.63 16.75,50.51 43.664,50.51 h 491.317 c 21.91,0 40.5,-16.06 43.67,-37.73 l 122.98,-840.73 c 3.89,-26.629 -16.75,-50.508 -43.66,-50.508"
         style="fill:#ededeb;fill-opacity:1;fill-rule:nonzero;stroke:none"
         id="path32" /><path
         d="m 895.785,680.242 h -231.66 c -21.902,0 -40.492,16.059 -43.66,37.738 L 497.48,1558.7 c -3.894,26.63 16.747,50.51 43.661,50.51 h 231.664 c 21.902,0 40.488,-16.06 43.66,-37.73 L 939.449,730.75 c 3.895,-26.629 -16.75,-50.508 -43.664,-50.508"
         style="fill:#fafaf9;fill-opacity:1;fill-rule:nonzero;stroke:none"
         id="path34" /><path
         d="M 3828.24,1822.28 H 1440.19 c -60.65,0 -114.03,-45.47 -119.22,-101.58 l -60.1,-649.11 c -5.2,-56.1 39.76,-101.578 100.41,-101.578 h 2388.04 c 60.65,0 114.03,45.478 119.22,101.578 l 60.11,649.11 c 5.19,56.11 -39.76,101.58 -100.41,101.58"
         style="fill:#dadbd8;fill-opacity:1;fill-rule:nonzero;stroke:none"
         id="path36" /><path
         d="M 3666.14,1822.28 H 1278.09 c -60.65,0 -114.02,-45.47 -119.22,-101.58 l -60.1,-649.11 c -5.19,-56.1 39.76,-101.578 100.41,-101.578 h 2388.05 c 60.64,0 114.02,45.478 119.22,101.578 l 60.1,649.11 c 5.19,56.11 -39.76,101.58 -100.41,101.58"
         style="fill:#e2e2e0;fill-opacity:1;fill-rule:nonzero;stroke:none"
         id="path38" /><path
         d="m 976.609,752.18 v 231.109 c 0,39.741 32.211,71.951 71.951,71.951 h 899.43 c 39.74,0 71.95,-32.21 71.95,-71.951 V 752.18 c 0,-39.731 -32.21,-71.938 -71.95,-71.938 h -899.43 c -39.74,0 -71.951,32.207 -71.951,71.938"
         style="fill:#e7e8e5;fill-opacity:1;fill-rule:nonzero;stroke:none"
         id="path40" /><path
         d="m 2277.17,746.082 v 243.316 c 0,36.362 29.48,65.842 65.84,65.842 h 1049.73 c 36.36,0 65.84,-29.48 65.84,-65.842 V 746.082 c 0,-36.363 -29.48,-65.84 -65.84,-65.84 H 2343.01 c -36.36,0 -65.84,29.477 -65.84,65.84"
         style="fill:#dadbd8;fill-opacity:1;fill-rule:nonzero;stroke:none"
         id="path42" /><path
         d="m 2019.94,746.082 v 243.316 c 0,36.362 29.48,65.842 65.84,65.842 h 1049.73 c 36.37,0 65.84,-29.48 65.84,-65.842 V 746.082 c 0,-36.363 -29.47,-65.84 -65.84,-65.84 H 2085.78 c -36.36,0 -65.84,29.477 -65.84,65.84"
         style="fill:#e7e8e5;fill-opacity:1;fill-rule:nonzero;stroke:none"
         id="path44" /><path
         d="m 3821.66,680.242 h -365.51 c -26.91,0 -44.51,23.879 -37.22,50.508 l 230.2,840.73 c 5.93,21.67 26.57,37.74 48.47,37.74 h 365.5 c 26.92,0 44.51,-23.89 37.22,-50.52 L 3870.13,717.98 c -5.93,-21.679 -26.57,-37.738 -48.47,-37.738"
         style="fill:#ededeb;fill-opacity:1;fill-rule:nonzero;stroke:none"
         id="path46" /><path
         d="m 3514.59,680.242 h -231.66 c -26.91,0 -44.51,23.879 -37.22,50.508 l 230.19,840.73 c 5.94,21.67 26.58,37.74 48.48,37.74 h 231.66 c 26.91,0 44.51,-23.89 37.22,-50.52 L 3563.07,717.98 c -5.94,-21.679 -26.57,-37.738 -48.48,-37.738"
         style="fill:#fafaf9;fill-opacity:1;fill-rule:nonzero;stroke:none"
         id="path48" /><path
         d="m 3320.77,451.629 h -35.16 l -84.26,228.613 h 87.1 l 32.32,-228.613"
         style="fill:#dadbd8;fill-opacity:1;fill-rule:nonzero;stroke:none"
         id="path50" /><path
         d="m 3766.96,451.629 h -35.16 l -84.26,228.613 h 87.1 l 32.32,-228.613"
         style="fill:#dadbd8;fill-opacity:1;fill-rule:nonzero;stroke:none"
         id="path52" /><path
         d="m 1230.72,451.629 h 35.16 l 84.25,228.613 h -87.09 l -32.32,-228.613"
         style="fill:#dadbd8;fill-opacity:1;fill-rule:nonzero;stroke:none"
         id="path54" /><path
         d="m 784.531,451.629 h 35.157 l 84.257,228.613 H 816.852 L 784.531,451.629"
         style="fill:#dadbd8;fill-opacity:1;fill-rule:nonzero;stroke:none"
         id="path56" /><path
         d="m 1166.69,2347.84 h 2666.62 v 951.109 H 1166.69 Z"
         style="fill:#dadbd8;fill-opacity:1;fill-rule:nonzero;stroke:none"
         id="path58" /><path
         d="m 1142.25,2347.84 h 2666.61 v 951.109 H 1142.25 Z"
         style="fill:#ededeb;fill-opacity:1;fill-rule:nonzero;stroke:none"
         id="path60" /><path
         d="m 1222.25,2427.84 h 2506.61 v 791.109 H 1222.25 Z"
         style="fill:#fafaf9;fill-opacity:1;fill-rule:nonzero;stroke:none"
         id="path62" /><path
         d="m 2712.78,2823.39 c 0,-131.01 -106.21,-237.22 -237.23,-237.22 -131.01,0 -237.22,106.21 -237.22,237.22 0,131.02 106.21,237.23 237.22,237.23 131.02,0 237.23,-106.21 237.23,-237.23"
         style="fill:#ededeb;fill-opacity:1;fill-rule:nonzero;stroke:none"
         id="path64" /><path
         d="m 1629.15,2427.84 166.14,791.11 h 366.67 l -166.14,-791.11 h -366.67"
         style="fill:#ffffff;fill-opacity:1;fill-rule:nonzero;stroke:none"
         id="path66" /><path
         d="m 2150.53,2427.84 166.14,791.11 H 2500 l -166.13,-791.11 h -183.34"
         style="fill:#ffffff;fill-opacity:1;fill-rule:nonzero;stroke:none"
         id="path68" /><path
         d="m 3269.94,2427.84 166.14,791.11 h 183.33 l -166.13,-791.11 h -183.34"
         style="fill:#ffffff;fill-opacity:1;fill-rule:nonzero;stroke:none"
         id="path70" /><path
         d="m 4422.78,1758 c -62.22,-269.63 89.98,-548.14 27.76,-817.758 -20.54,0.848 -41.08,1.699 -61.61,2.559 -20.54,0.847 -41.08,1.699 -61.62,2.551 103.3,267.918 -7.83,544.728 95.47,812.648"
         style="fill:#ededeb;fill-opacity:1;fill-rule:nonzero;stroke:none"
         id="path72" /><path
         d="m 4263.33,1641.07 c 50.98,-257.79 -112.64,-515.55 -61.66,-773.328 20.55,0 41.11,0 61.66,0 20.56,0 41.12,0 61.67,0 -92.09,257.778 30.42,515.538 -61.67,773.328"
         style="fill:#ededeb;fill-opacity:1;fill-rule:nonzero;stroke:none"
         id="path74" /><path
         d="m 4377.15,1855.4 c -81.55,-274.9 70.05,-571.58 -11.5,-846.48 -22.34,2.08 -44.67,4.17 -67,6.26 -22.34,2.08 -44.67,4.17 -67,6.26 126.22,270.73 19.28,563.23 145.5,833.96"
         style="fill:#e2e2e0;fill-opacity:1;fill-rule:nonzero;stroke:none"
         id="path76" /><path
         d="m 4497.29,1459.54 c 26.31,-148.65 -120.37,-265.54 -94.07,-414.19 16.58,-3.04 33.15,-6.08 49.72,-9.13 16.57,-3.04 33.14,-6.08 49.71,-9.12 -59.45,154.73 54.09,277.71 -5.36,432.44"
         style="fill:#e2e2e0;fill-opacity:1;fill-rule:nonzero;stroke:none"
         id="path78" /><path
         d="m 4551.67,1055.24 c -134.29,0 -268.58,0 -402.87,0 -93.27,-190.4 -93.27,-413.22 0,-603.611 134.29,0 268.58,0 402.87,0 93.27,190.391 93.27,413.211 0,603.611"
         style="fill:#dadbd8;fill-opacity:1;fill-rule:nonzero;stroke:none"
         id="path80" /><path
         d="M 4438.89,113.238 C 4438.89,50.6992 3570.82,0 2500,0 1429.18,0 561.109,50.6992 561.109,113.238 c 0,62.532 868.071,113.231 1938.891,113.231 1070.82,0 1938.89,-50.699 1938.89,-113.231"
         style="fill:#f3f2f1;fill-opacity:1;fill-rule:nonzero;stroke:none"
         id="path82" /><path
         d="M 3837.96,1529.67 H 1676.99 c -23.29,0 -41.31,19.07 -40.03,42.36 l 72.78,1324.85 c 1.28,23.3 21.39,42.36 44.68,42.36 h 2160.97 c 23.3,0 41.31,-19.06 40.03,-42.36 l -72.77,-1324.85 c -1.28,-23.29 -21.39,-42.36 -44.69,-42.36"
         style="fill:#17282f;fill-opacity:1;fill-rule:nonzero;stroke:none"
         id="path84" /><path
         d="m 2928.94,2713.93 h -208.88 c -69.66,0 -123.52,56.91 -119.7,126.46 l 2.12,38.65 c 3.7,67.38 61.95,122.52 129.44,122.52 h 208.75 c 69.73,0 123.65,-56.97 119.83,-126.59 l -2.12,-38.52 c -3.7,-67.38 -61.95,-122.52 -129.44,-122.52"
         style="fill:#17282f;fill-opacity:1;fill-rule:nonzero;stroke:none"
         id="path86" /><path
         d="m 3119.1,154.992 h -66.93 L 2867.92,2972.05 h 66.93 L 3119.1,154.992"
         style="fill:#17282f;fill-opacity:1;fill-rule:nonzero;stroke:none"
         id="path88" /><path
         d="m 2616.74,154.992 h 66.93 l 184.25,2817.058 h -66.93 L 2616.74,154.992"
         style="fill:#17282f;fill-opacity:1;fill-rule:nonzero;stroke:none"
         id="path90" /><path
         d="M 3826.46,1529.67 H 1665.49 c -23.3,0 -41.31,19.07 -40.04,42.36 l 72.78,1324.85 c 1.28,23.3 21.39,42.36 44.69,42.36 h 2160.97 c 23.29,0 41.31,-19.06 40.03,-42.36 l -72.78,-1324.85 c -1.28,-23.29 -21.39,-42.36 -44.68,-42.36"
         style="fill:#406fbf;fill-opacity:1;fill-rule:nonzero;stroke:none"
         id="path92" /><g
         id="g94"><g
           id="g96"
           clip-path="url(#clipPath100)"><path
             d="M 1666.78,1570.27 H 3902.59 V 2898.65 H 1666.78 Z"
             style="fill:#3161b6;fill-opacity:1;fill-rule:nonzero;stroke:none"
             id="path102" /></g></g><path
         d="m 3111.89,1623.74 c -2.24,0 -3.96,1.82 -3.84,4.06 l 31.53,573.86 c 0.87,15.87 -11.29,28.74 -27.16,28.74 h -655.91 c -15.87,0 -29.44,-12.87 -30.32,-28.74 l -31.52,-573.86 c -0.12,-2.24 -2.04,-4.06 -4.28,-4.06 -2.24,0 -3.96,1.82 -3.84,4.06 l 31.53,573.86 c 0.65,11.99 -6.12,22.26 -16.31,26.57 l 0.69,12.46 c 10.66,4.31 18.56,14.58 19.22,26.56 l 31.52,573.86 c 0.12,2.24 2.04,4.06 4.28,4.06 2.25,0 3.96,-1.82 3.84,-4.06 l -31.52,-573.86 c -0.87,-15.87 11.28,-28.73 27.16,-28.73 h 655.9 c 15.88,0 29.45,12.86 30.32,28.73 l 31.52,573.86 c 0.13,2.24 2.04,4.06 4.29,4.06 2.24,0 3.96,-1.82 3.83,-4.06 l -31.52,-573.86 c -0.87,-15.87 11.29,-28.73 27.16,-28.73 h 631.17 c 2.24,0 3.96,-1.82 3.83,-4.06 -0.12,-2.25 -2.03,-4.06 -4.28,-4.06 h -631.17 c -15.87,0 -29.44,-12.87 -30.31,-28.74 l -31.53,-573.86 c -0.12,-2.24 -2.04,-4.06 -4.28,-4.06 m -963.52,606.66 h -388.62 c -2.25,0 -3.96,1.81 -3.84,4.06 0.12,2.24 2.04,4.06 4.28,4.06 h 388.62 l -0.44,-8.12"
         style="fill:#3f6ebf;fill-opacity:1;fill-rule:nonzero;stroke:none"
         id="path104" /><path
         d="m 2766.01,2476.56 -253.16,6.76 14.17,257.84 h 253.52 l -14.53,-264.6"
         style="fill:#264f8b;fill-opacity:1;fill-rule:nonzero;stroke:none"
         id="path106" /><path
         d="m 2753.05,2487.64 c -84.81,4.13 -169.63,8.27 -254.46,12.4 14.08,87.64 22.91,175.5 26.47,263.11 85.33,-4.13 170.64,-8.26 255.95,-12.4 -4.05,-87.63 -13.38,-175.5 -27.96,-263.11"
         style="fill:#ffffff;fill-opacity:1;fill-rule:nonzero;stroke:none"
         id="path108" /><path
         d="m 2837.89,2292.47 -5.57,257.09 253.85,19.35 5.71,-263.83 -253.99,-12.61"
         style="fill:#264f8b;fill-opacity:1;fill-rule:nonzero;stroke:none"
         id="path110" /><path
         d="m 3078.06,2315.1 c -85.24,-2.38 -170.48,-4.75 -255.74,-7.12 7.39,88.09 9.51,176 6.35,263.26 85.76,2.41 171.5,4.82 257.23,7.23 2.65,-87.32 0.04,-175.27 -7.84,-263.37"
         style="fill:#406fbf;fill-opacity:1;fill-rule:nonzero;stroke:none"
         id="path112" /><path
         d="m 2301.67,1672.71 -466.92,28.8 42,416.35 468.02,-17.88 -43.1,-427.27"
         style="fill:#264f8b;fill-opacity:1;fill-rule:nonzero;stroke:none"
         id="path114" /><path
         d="m 2278.44,1691.56 c -156.31,12.67 -312.64,25.35 -468.99,38.02 31.39,140.86 53.09,282.44 65.04,424 157.27,-12.7 314.51,-25.4 471.73,-38.11 -12.86,-141.56 -35.49,-283.13 -67.78,-423.91"
         style="fill:#ffffff;fill-opacity:1;fill-rule:nonzero;stroke:none"
         id="path116" /><path
         d="m 1863.07,2682.91 c -14.51,0 -25.73,11.87 -24.93,26.38 0.79,14.51 13.32,26.39 27.83,26.39 14.51,0 25.73,-11.88 24.94,-26.39 -0.8,-14.51 -13.33,-26.38 -27.84,-26.38"
         style="fill:#234d92;fill-opacity:1;fill-rule:nonzero;stroke:none"
         id="path118" /><path
         d="m 2276.63,2682.91 h -324.74 c -14.51,0 -25.74,11.87 -24.94,26.38 0.8,14.51 13.32,26.39 27.84,26.39 h 324.74 c 14.51,0 25.73,-11.88 24.93,-26.39 -0.79,-14.51 -13.32,-26.38 -27.83,-26.38"
         style="fill:#23529f;fill-opacity:1;fill-rule:nonzero;stroke:none"
         id="path120" /><path
         d="m 1856.75,2567.84 c -4.19,0 -8.11,0.99 -11.54,2.75 -3.98,5.16 -8.23,10.59 -12.73,16.2 -0.57,2.36 -0.81,4.86 -0.66,7.44 0.79,14.51 13.32,26.38 27.83,26.38 14.51,0 25.73,-11.87 24.94,-26.38 -0.8,-14.51 -13.33,-26.39 -27.84,-26.39"
         style="fill:#234d92;fill-opacity:1;fill-rule:nonzero;stroke:none"
         id="path122" /><path
         d="m 2327.82,2567.84 h -382.25 c -14.52,0 -25.74,11.88 -24.94,26.39 0.8,14.51 13.32,26.38 27.84,26.38 h 382.24 c 14.52,0 25.74,-11.87 24.94,-26.38 -0.8,-14.51 -13.32,-26.39 -27.83,-26.39"
         style="fill:#23529f;fill-opacity:1;fill-rule:nonzero;stroke:none"
         id="path124" /><path
         d="m 1872.92,2464.41 c -6.89,7.82 -13.66,15.83 -20.34,23.99 l 12.29,14.4 c 8.45,-4.33 13.96,-13.32 13.39,-23.64 -0.29,-5.45 -2.25,-10.53 -5.34,-14.75"
         style="fill:#234d92;fill-opacity:1;fill-rule:nonzero;stroke:none"
         id="path126" /><path
         d="m 2042.42,2452.77 h -103.17 c -14.52,0 -25.74,11.88 -24.94,26.39 0.8,14.51 13.32,26.39 27.83,26.39 h 186.06 c 14.51,0 25.73,-11.88 24.93,-26.39 -0.72,-13.07 -10.95,-24.01 -23.59,-26.04 0.96,1.52 1.92,3.04 2.87,4.58 l -42.92,34.65 c -15.35,-13.31 -31.14,-26.79 -47.07,-39.58"
         style="fill:#23529f;fill-opacity:1;fill-rule:nonzero;stroke:none"
         id="path128" /><path
         d="m 2154.26,2337.71 h -42.73 c -14.51,0 -25.73,11.87 -24.93,26.38 0.79,14.51 13.32,26.39 27.83,26.39 h 42.73 l -2.9,-52.77"
         style="fill:#23529f;fill-opacity:1;fill-rule:nonzero;stroke:none"
         id="path130" /><path
         d="m 1844.11,2337.71 c -14.51,0 -25.73,11.87 -24.94,26.38 0.03,0.55 0.08,1.1 0.14,1.64 10.11,-9.3 20.62,-18.37 31.61,-27.14 -2.19,-0.57 -4.48,-0.88 -6.81,-0.88"
         style="fill:#234d92;fill-opacity:1;fill-rule:nonzero;stroke:none"
         id="path132" /><path
         d="m 2651.45,1995.31 h -125.93 l -17.31,-315.08 h 125.93 l 17.31,315.08"
         style="fill:#406fbf;fill-opacity:1;fill-rule:nonzero;stroke:none"
         id="path134" /><path
         d="m 2842.45,1930.36 h -125.92 l -13.74,-250.13 h 125.92 l 13.74,250.13"
         style="fill:#406fbf;fill-opacity:1;fill-rule:nonzero;stroke:none"
         id="path136" /><path
         d="m 3046.24,2098.14 h -125.93 l -22.95,-417.91 h 125.92 l 22.96,417.91"
         style="fill:#406fbf;fill-opacity:1;fill-rule:nonzero;stroke:none"
         id="path138" /><path
         d="m 2553.55,1817.52 c -12.47,0 -25.04,0.33 -37.75,0.98 -22,1.13 -50.53,3.91 -76.19,15.45 -4.08,1.83 -5.91,6.64 -4.07,10.73 1.84,4.09 6.64,5.91 10.73,4.08 23.2,-10.44 49.78,-12.99 70.36,-14.04 151.09,-7.78 283.39,31.58 416.55,123.82 31.75,22 79.15,62.68 108.28,104.97 2.54,3.7 7.6,4.61 11.29,2.08 3.69,-2.54 4.62,-7.6 2.08,-11.29 -30.33,-44.05 -77.95,-85.24 -112.4,-109.1 -125.07,-86.65 -249.57,-127.68 -388.88,-127.68"
         style="fill:#ffffff;fill-opacity:1;fill-rule:nonzero;stroke:none"
         id="path140" /><path
         d="m 3073.58,2001.3 c -1.03,0 -2.08,0.2 -3.1,0.62 -4.14,1.71 -6.11,6.45 -4.4,10.6 11.5,27.84 13.92,59.14 6.99,87.46 -31.66,-21.29 -65.45,-39.23 -100.6,-53.41 -4.16,-1.67 -8.89,0.34 -10.57,4.5 -1.67,4.15 0.34,8.88 4.5,10.56 37.47,15.12 73.36,34.65 106.66,58.05 2.09,1.47 4.76,1.87 7.19,1.07 2.44,-0.8 4.35,-2.69 5.17,-5.12 11.66,-34.57 10.08,-74.42 -4.33,-109.31 -1.3,-3.13 -4.32,-5.02 -7.51,-5.02"
         style="fill:#ffffff;fill-opacity:1;fill-rule:nonzero;stroke:none"
         id="path142" /><path
         d="m 3292.82,2759.09 c -11.99,0 -22.27,-9.75 -22.93,-21.74 l -21.76,-396.01 c -0.31,-5.71 1.61,-11.07 5.41,-15.08 3.79,-4.01 9.01,-6.21 14.71,-6.21 h 468.44 c 11.98,0 22.27,9.75 22.93,21.74 l 21.75,396 c 0.31,5.72 -1.6,11.07 -5.4,15.09 -3.79,4 -9.02,6.21 -14.72,6.21 z m 443.87,-447.16 h -468.44 c -7.95,0 -15.27,3.11 -20.6,8.75 -5.36,5.65 -8.06,13.15 -7.62,21.11 l 21.75,396 c 0.89,16.22 14.82,29.42 31.04,29.42 h 468.43 c 7.95,0 15.27,-3.11 20.61,-8.75 5.35,-5.65 8.06,-13.15 7.62,-21.11 l -21.76,-396.01 c -0.88,-16.21 -14.81,-29.41 -31.03,-29.41"
         style="fill:#406fbf;fill-opacity:1;fill-rule:nonzero;stroke:none"
         id="path144" /><path
         d="m 3781.04,2653.58 h -519.59 c -2.25,0 -4.06,1.82 -4.06,4.06 0,2.25 1.81,4.06 4.06,4.06 h 519.59 c 2.24,0 4.05,-1.81 4.05,-4.06 0,-2.24 -1.81,-4.06 -4.05,-4.06"
         style="fill:#406fbf;fill-opacity:1;fill-rule:nonzero;stroke:none"
         id="path146" /><path
         d="m 3365.36,2311.93 -0.23,0.01 c -2.23,0.12 -3.95,2.03 -3.83,4.27 l 18.77,341.66 c 0.12,2.24 2.01,3.98 4.28,3.83 2.24,-0.12 3.95,-2.04 3.83,-4.28 l -18.77,-341.65 c -0.12,-2.17 -1.91,-3.84 -4.05,-3.84"
         style="fill:#406fbf;fill-opacity:1;fill-rule:nonzero;stroke:none"
         id="path148" /><path
         d="m 3721.52,2612.99 h -282.09 c -2.24,0 -4.06,1.82 -4.06,4.06 0,2.25 1.82,4.06 4.06,4.06 h 282.09 c 2.24,0 4.06,-1.81 4.06,-4.06 0,-2.24 -1.82,-4.06 -4.06,-4.06"
         style="fill:#406fbf;fill-opacity:1;fill-rule:nonzero;stroke:none"
         id="path150" /><path
         d="m 3679.02,2563.18 h -242.33 c -2.24,0 -4.05,1.82 -4.05,4.06 0,2.24 1.81,4.06 4.05,4.06 h 242.33 c 2.24,0 4.06,-1.82 4.06,-4.06 0,-2.24 -1.82,-4.06 -4.06,-4.06"
         style="fill:#406fbf;fill-opacity:1;fill-rule:nonzero;stroke:none"
         id="path152" /><path
         d="m 3574.92,2511.77 h -141.05 c -2.24,0 -4.06,1.82 -4.06,4.06 0,2.24 1.82,4.06 4.06,4.06 h 141.05 c 2.24,0 4.05,-1.82 4.05,-4.06 0,-2.24 -1.81,-4.06 -4.05,-4.06"
         style="fill:#406fbf;fill-opacity:1;fill-rule:nonzero;stroke:none"
         id="path154" /><path
         d="m 3600.54,2411.44 h -172.18 c -2.24,0 -4.06,1.82 -4.06,4.06 0,2.24 1.82,4.06 4.06,4.06 h 172.18 c 2.24,0 4.06,-1.82 4.06,-4.06 0,-2.24 -1.82,-4.06 -4.06,-4.06"
         style="fill:#406fbf;fill-opacity:1;fill-rule:nonzero;stroke:none"
         id="path156" /><path
         d="m 3566.58,2360.03 h -141.05 c -2.24,0 -4.06,1.82 -4.06,4.06 0,2.24 1.82,4.06 4.06,4.06 h 141.05 c 2.24,0 4.06,-1.82 4.06,-4.06 0,-2.24 -1.82,-4.06 -4.06,-4.06"
         style="fill:#406fbf;fill-opacity:1;fill-rule:nonzero;stroke:none"
         id="path158" /><path
         d="m 3649.15,2360.03 h -45.19 c -2.25,0 -4.06,1.82 -4.06,4.06 0,2.24 1.81,4.06 4.06,4.06 h 45.19 c 2.24,0 4.06,-1.82 4.06,-4.06 0,-2.24 -1.82,-4.06 -4.06,-4.06"
         style="fill:#406fbf;fill-opacity:1;fill-rule:nonzero;stroke:none"
         id="path160" /><path
         d="m 3695.27,2461.96 h -264.14 c -2.24,0 -4.05,1.82 -4.05,4.06 0,2.24 1.81,4.06 4.05,4.06 h 264.14 c 2.24,0 4.06,-1.82 4.06,-4.06 0,-2.24 -1.82,-4.06 -4.06,-4.06"
         style="fill:#406fbf;fill-opacity:1;fill-rule:nonzero;stroke:none"
         id="path162" /><path
         d="m 3449.04,1735.81 c -61.19,0 -111.34,18.09 -142.48,51.73 -33.25,35.91 -47.04,92.38 -37.85,154.95 5.63,38.32 18.16,70.47 37.22,95.57 19.14,25.18 46.82,45.94 82.28,61.71 78.24,34.8 168.8,33.58 242.26,-3.27 32.91,-16.51 53.54,-37.4 61.31,-62.08 1.35,-4.28 -1.03,-8.84 -5.31,-10.18 -4.28,-1.35 -8.83,1.03 -10.18,5.3 -6.4,20.34 -24.26,37.98 -53.1,52.45 -69.16,34.69 -154.53,35.78 -228.38,2.94 -32.93,-14.64 -58.48,-33.72 -75.95,-56.7 -17.39,-22.88 -28.86,-52.53 -34.08,-88.1 -8.48,-57.68 3.8,-109.28 33.69,-141.56 41.55,-44.89 110.34,-48.09 147.65,-46.04 69.35,3.84 129.03,28.07 168.02,68.21 45.6,46.96 58.38,117.2 29.73,163.38 -5.55,8.95 -17.48,24.22 -35.03,25.97 -4.46,0.45 -7.72,4.43 -7.27,8.89 0.44,4.46 4.45,7.69 8.88,7.27 18.14,-1.81 34.91,-13.73 47.22,-33.57 32.46,-52.33 18.75,-131.11 -31.88,-183.25 -41.85,-43.08 -105.34,-69.05 -178.77,-73.12 -6.09,-0.33 -12.09,-0.5 -17.98,-0.5"
         style="fill:#ffffff;fill-opacity:1;fill-rule:nonzero;stroke:none"
         id="path164" /><path
         d="m 1373.19,2582.27 -28.84,-50.26 -28.26,-51.33 c -18.61,-34.28 -36.39,-68.86 -52.62,-103.6 -8.08,-17.42 -15.77,-34.76 -22.79,-52.19 l -1.3,-3.15 -0.42,-0.75 -0.85,-1.38 c -0.55,-0.88 -0.9,-1.73 -1.36,-2.87 -0.75,-2.25 -0.46,-6.1 1.2,-11.21 3.18,-10.37 12.57,-23.91 24.08,-36.51 11.3,-12.68 25.91,-25.64 39.05,-37.01 l -23.43,-49.93 c -11.91,3.39 -21.82,6.83 -32.32,11.42 -10.39,4.38 -20.47,9.67 -30.53,15.66 -19.87,12.27 -39.83,27.43 -56.36,52.27 -8.04,12.42 -14.93,27.81 -17.63,45.61 -1.23,8.86 -1.67,18.14 -0.53,27.18 0.5,4.54 1.17,9.05 2.29,13.33 l 1.64,6.5 1.23,3.95 c 6.43,20.45 13.09,40.68 20.89,60.19 15.2,39.25 32.32,77.18 51,114.1 9.33,18.47 19.01,36.72 29.2,54.69 10.26,18.12 20.23,35.61 31.96,53.88 l 94.7,-58.59"
         style="fill:#f9a8b3;fill-opacity:1;fill-rule:nonzero;stroke:none"
         id="path166" /><path
         d="m 1275.99,2237.66 52.54,13.66 3.01,-84.84 c 0,0 -41.09,-6.11 -66.27,19.04 l 10.72,52.14"
         style="fill:#f9a8b3;fill-opacity:1;fill-rule:nonzero;stroke:none"
         id="path168" /><path
         d="m 1402.99,2265.62 -11.85,-74.48 -59.6,-24.66 -3.01,84.84 74.46,14.3"
         style="fill:#f9a8b3;fill-opacity:1;fill-rule:nonzero;stroke:none"
         id="path170" /><path
         d="m 1620.33,2982.04 c 1.18,-5.81 5.22,-9.89 9.01,-9.12 3.8,0.78 5.92,6.11 4.74,11.92 -1.18,5.8 -5.22,9.88 -9.01,9.11 -3.8,-0.77 -5.92,-6.1 -4.74,-11.91"
         style="fill:#17282f;fill-opacity:1;fill-rule:nonzero;stroke:none"
         id="path172" /><path
         d="m 1625.01,2972.04 c 0,0 20.02,-30.81 37.84,-44.02 -8.33,-11.68 -26.69,-10.84 -26.69,-10.84 l -11.15,54.86"
         style="fill:#f46878;fill-opacity:1;fill-rule:nonzero;stroke:none"
         id="path174" /><path
         d="m 1592.52,3009.96 -2.37,0.93 c -1.41,1.3 -1.49,3.5 -0.19,4.91 13.07,14.15 28.92,11.63 29.61,11.52 1.89,-0.32 3.17,-2.12 2.84,-4.02 -0.32,-1.89 -2.14,-3.15 -3.99,-2.84 -0.53,0.08 -12.92,1.9 -23.35,-9.38 -0.68,-0.74 -1.62,-1.12 -2.55,-1.12"
         style="fill:#17282f;fill-opacity:1;fill-rule:nonzero;stroke:none"
         id="path176" /><path
         d="m 1454.92,2900.37 c 10.54,-53.75 21.05,-152.22 -16.55,-188.08 0,0 14.69,-54.52 114.55,-54.52 109.81,0 52.48,54.51 52.48,54.51 -59.93,14.32 -58.38,58.78 -47.94,100.54 l -102.54,87.55"
         style="fill:#f9a8b3;fill-opacity:1;fill-rule:nonzero;stroke:none"
         id="path178" /><path
         d="m 1416.71,2702.32 c -8.03,14.93 -16.87,32.02 1.41,37.37 20.12,5.89 149.36,16.81 187.33,5.76 -11.67,-20.75 8.08,-46.26 8.08,-46.26 l -196.82,3.13"
         style="fill:#17282f;fill-opacity:1;fill-rule:nonzero;stroke:none"
         id="path180" /><path
         d="m 1103.33,208.539 2.05,-0.668 c 1.38,-0.66 2.24,-1.641 2.64,-2.973 0.93,-3.128 -0.23,-4.117 -0.61,-4.449 -3.95,-3.347 -18.62,-0.258 -28.95,3.883 7.01,2.469 18.35,5.617 24.87,4.207 z m -11.95,-11.738 c 7.37,-1.59 14.74,-2.012 18.29,1.008 1.49,1.273 2.99,3.691 1.68,8.082 -0.68,2.3 -2.19,4.031 -4.47,5.121 -9.93,4.726 -32.72,-4.563 -33.69,-4.961 l -1.07,-1.551 0.98,-1.621 c 3.48,-1.68 10.88,-4.481 18.28,-6.078"
         style="fill:#406fbf;fill-opacity:1;fill-rule:nonzero;stroke:none"
         id="path182" /><path
         d="m 1094.28,228.711 0.76,-0.211 c 2.15,-0.75 2.12,-1.801 2.11,-2.25 -0.12,-4.93 -11.85,-14.828 -20.45,-18.84 2.15,5.871 7.06,17.449 13.35,20.66 1.44,0.731 2.83,0.95 4.23,0.641 z m -20.79,-25.969 0.85,0.039 c 8.31,2.418 26.08,15.039 26.29,23.379 0.04,1.512 -0.49,4.25 -4.45,5.629 -2.57,0.891 -5.16,0.68 -7.71,-0.617 -9.82,-5.012 -16.02,-25.363 -16.28,-26.231 l 0.43,-1.722 0.87,-0.477"
         style="fill:#406fbf;fill-opacity:1;fill-rule:nonzero;stroke:none"
         id="path184" /><path
         d="m 1645.42,198.719 c 1.22,0 2.36,-0.117 3.36,-0.387 1.61,-0.441 2.72,-1.242 3.41,-2.441 1.23,-2.161 0.78,-3.231 0.34,-3.852 -3.42,-4.738 -21.99,-4.848 -35.65,-2.918 6.81,3.488 19.95,9.598 28.54,9.598 z m -11.65,-14.239 c 9.43,0 18.53,1.29 21.58,5.532 1.07,1.48 1.91,4.008 -0.14,7.609 -1.15,2.008 -3.01,3.379 -5.51,4.07 -12.23,3.321 -37.9,-11.312 -38.99,-11.941 l -0.85,-1.789 1.37,-1.422 c 4.69,-0.937 13.75,-2.059 22.54,-2.059"
         style="fill:#406fbf;fill-opacity:1;fill-rule:nonzero;stroke:none"
         id="path186" /><path
         d="m 1629.5,216.289 1.05,-0.059 c 3.12,-0.308 3.33,-1.55 3.39,-1.949 0.8,-4.992 -11.13,-17.472 -20.18,-22.91 0.95,5.777 3.56,17.621 9.7,22.649 1.85,1.519 3.83,2.269 6.04,2.269 z m -17.92,-29.789 0.71,0.16 c 8.87,3.981 26.43,19.871 25.09,28.172 -0.32,1.949 -1.7,4.379 -6.48,4.867 -3.57,0.36 -6.8,-0.648 -9.65,-2.988 -9.35,-7.672 -11.33,-27.461 -11.41,-28.301 l 0.72,-1.578 1.02,-0.332"
         style="fill:#406fbf;fill-opacity:1;fill-rule:nonzero;stroke:none"
         id="path188" /><path
         d="m 1530.79,188.25 h 73.47 l 7.31,170.121 h -73.46 l -7.32,-170.121"
         style="fill:#f9a8b3;fill-opacity:1;fill-rule:nonzero;stroke:none"
         id="path190" /><path
         d="m 991.598,222.262 71.802,-15.551 72.08,158.461 -71.8,15.547 -72.082,-158.457"
         style="fill:#f9a8b3;fill-opacity:1;fill-rule:nonzero;stroke:none"
         id="path192" /><path
         d="m 1070.3,213.922 -80.667,17.469 c -2.934,0.629 -5.918,-0.86 -7.172,-3.59 l -28,-60.75 c -2.906,-6.301 0.941,-13.692 7.746,-15.039 28.266,-5.614 42.303,-6.922 77.773,-14.602 21.83,-4.73 71.09,-16.73 101.23,-23.262 29.48,-6.378 40.53,22.434 28.77,27.801 -52.7,24.082 -74.72,45.281 -88.98,65.031 -2.57,3.559 -6.41,6.008 -10.7,6.942"
         style="fill:#17282f;fill-opacity:1;fill-rule:nonzero;stroke:none"
         id="path194" /><path
         d="m 1603.77,196.75 h -80.22 c -3.01,0 -5.61,-2.078 -6.26,-5.02 l -14.51,-65.289 c -1.5,-6.769 3.64,-13.191 10.57,-13.07 28.94,0.488 70.76,2.188 107.13,2.188 42.53,0 79.26,-2.321 129.14,-2.321 30.16,0 38.53,30.492 25.91,33.254 -57.47,12.567 -104.4,13.918 -154.06,44.539 -5.4,3.328 -11.36,5.719 -17.7,5.719"
         style="fill:#17282f;fill-opacity:1;fill-rule:nonzero;stroke:none"
         id="path196" /><path
         d="m 1306.83,2695.68 c -68.85,-15.79 -125.62,-191.56 -125.62,-191.56 l 138.27,-105.39 c 0,0 50.74,47.85 73.33,135.78 23.67,92.12 -15.57,177.31 -85.98,161.17"
         style="fill:#406fbf;fill-opacity:1;fill-rule:nonzero;stroke:none"
         id="path198" /><path
         d="m 1319.48,2398.73 -0.01,0.01 c 0.5,0.47 8.06,7.73 18.47,21.37 0,-0.02 0,0 0,-0.02 -10.75,-14.09 -18.46,-21.36 -18.46,-21.36 m -5.07,3.87 -28.09,21.41 -88.72,67.62 -16.39,12.49 c 0,0 56.77,175.77 125.62,191.56 1.99,0.45 3.93,0.83 5.86,1.12 -3.77,-0.7 -5.86,-1.12 -5.86,-1.12 v 0 0 c 12.66,-61.81 20.76,-124.07 25.73,-184.32 -12.24,-33.35 -17.45,-72.27 -19.21,-107.94 l 1.06,-0.82"
         style="fill:#5c85cc;fill-opacity:1;fill-rule:nonzero;stroke:none"
         id="path200" /><path
         d="m 1319.44,2398.72 -5.03,3.88 5.06,-3.86 c -0.02,-0.02 -0.03,-0.02 -0.03,-0.02"
         style="fill:#b6b8b6;fill-opacity:1;fill-rule:nonzero;stroke:none"
         id="path202" /><path
         d="m 1319.47,2398.74 -5.06,3.86 -1.06,0.82 c 1.76,35.67 6.97,74.59 19.21,107.94 2.57,-31.06 4.3,-61.61 5.38,-91.25 -10.41,-13.64 -17.97,-20.9 -18.47,-21.37"
         style="fill:#4771c1;fill-opacity:1;fill-rule:nonzero;stroke:none"
         id="path204" /><path
         d="m 1718.4,2691.89 c 0,0 78.19,-88.31 4.35,-634.97 -118.39,0 -335.32,0 -392.93,0 -2.71,60.32 35.19,354.56 -22.99,638.76 0,0 67.36,13.51 131.54,16.61 50.21,2.42 122.89,4.02 167.03,-0.01 58.19,-5.31 113,-20.39 113,-20.39"
         style="fill:#406fbf;fill-opacity:1;fill-rule:nonzero;stroke:none"
         id="path206" /><path
         d="m 1722.75,2056.92 c -118.39,0 -335.32,0 -392.93,0 -0.1,2.15 -0.14,4.6 -0.14,7.33 0.01,40.1 9.79,141.8 9.79,270.2 0,27.45 -0.44,56.1 -1.53,85.66 -1.08,29.64 -2.81,60.19 -5.38,91.25 -4.97,60.25 -13.07,122.51 -25.73,184.32 0,0 67.36,13.51 131.54,16.61 28.08,1.35 63.19,2.45 96.41,2.45 26.17,0 51.17,-0.68 70.62,-2.46 43.81,-4 85.7,-13.53 103.73,-18 -2.59,0.35 -5.15,0.53 -7.66,0.53 -46.88,0 -78.24,-59.94 -91.15,-114.04 -1.44,-6.06 -2.12,-12.11 -2.13,-18.13 -0.05,-39.75 29.32,-78.21 62.64,-109.04 17.71,-45.82 56.86,-90.5 80.11,-114.48 1.08,18.76 1.88,36.56 2.45,53.44 0.01,-0.01 0.02,-0.01 0.03,-0.02 -2.85,-86.03 -11.79,-195.85 -30.67,-335.62"
         style="fill:#5c85cc;fill-opacity:1;fill-rule:nonzero;stroke:none"
         id="path208" /><path
         d="m 1750.94,2339.12 c -23.25,23.98 -62.4,68.66 -80.11,114.48 30.84,-28.54 65.08,-50.56 82.56,-61.04 -0.57,-16.88 -1.37,-34.68 -2.45,-53.44"
         style="fill:#4771c1;fill-opacity:1;fill-rule:nonzero;stroke:none"
         id="path210" /><path
         d="m 1534.34,270.629 h -0.03 l 3.75,87.703 h 0.05 l -3.77,-87.703"
         style="fill:#c3c5c2;fill-opacity:1;fill-rule:nonzero;stroke:none"
         id="path212" /><path
         d="m 1607.8,270.629 h -73.46 l 3.77,87.703 h 73.45 l -3.76,-87.703"
         style="fill:#d8898c;fill-opacity:1;fill-rule:nonzero;stroke:none"
         id="path214" /><path
         d="m 1026.51,298.992 -0.06,0.008 7.21,15.82 0.04,-0.011 -7.19,-15.817"
         style="fill:#c3c5c2;fill-opacity:1;fill-rule:nonzero;stroke:none"
         id="path216" /><path
         d="m 1098.28,283.449 -71.77,15.543 7.19,15.817 71.79,-15.539 -7.21,-15.821"
         style="fill:#d8898c;fill-opacity:1;fill-rule:nonzero;stroke:none"
         id="path218" /><path
         d="m 1424.15,2954.98 c 18.88,-70.42 26.35,-112.6 69.81,-141.88 65.36,-44.05 146.75,6.5 149.3,81.15 2.29,67.18 -28.96,171.06 -104.53,185.25 -74.46,13.99 -133.45,-54.09 -114.58,-124.52"
         style="fill:#f9a8b3;fill-opacity:1;fill-rule:nonzero;stroke:none"
         id="path220" /><path
         d="m 1456.49,2840.15 c 29.94,-17.14 139.11,40.13 116.69,126.93 0,0 41.59,50.01 36.89,105.2 -4.7,55.18 -42.58,76.22 -82.88,64.38 -35.52,-10.44 -34.49,-29.89 -34.49,-29.89 0,0 -167.88,-19.77 -132.04,-88.01 -68.34,-74.5 58.46,-157.23 95.83,-178.61"
         style="fill:#17282f;fill-opacity:1;fill-rule:nonzero;stroke:none"
         id="path222" /><path
         d="m 1365.36,3013.09 c 0,0 -20,34.61 -49.17,15.23 13.75,-0.2 36.25,-2.55 49.17,-15.23"
         style="fill:#17282f;fill-opacity:1;fill-rule:nonzero;stroke:none"
         id="path224" /><path
         d="m 1604.72,3035.9 c 0,0 36.59,82.6 -20.45,109.19 19.23,-26.77 29.69,-69.96 20.45,-109.19"
         style="fill:#17282f;fill-opacity:1;fill-rule:nonzero;stroke:none"
         id="path226" /><path
         d="m 1543.98,2952.03 c 4.79,-18.48 16.93,-34.37 29.64,-43.83 19.12,-14.23 33.4,-0.23 32.04,21.41 -1.22,19.47 -12.64,50.34 -33.73,56.11 -20.78,5.69 -33.43,-12.55 -27.95,-33.69"
         style="fill:#f9a8b3;fill-opacity:1;fill-rule:nonzero;stroke:none"
         id="path228" /><path
         d="m 1583.36,2056.92 c 0,0 -83.37,-561.42 -129.14,-771.75 -50.12,-230.33 -318.88,-992.369 -318.88,-992.369 l -131.5,28.48 c 0,0 187.93,621 229.99,943.009 32.31,247.34 95.99,792.63 95.99,792.63 h 253.54"
         style="fill:#17282f;fill-opacity:1;fill-rule:nonzero;stroke:none"
         id="path230" /><path
         d="m 1166.83,336.711 -24.51,-47.563 -147.953,32.032 12.473,44.48 159.99,-28.949"
         style="fill:#406fbf;fill-opacity:1;fill-rule:nonzero;stroke:none"
         id="path232" /><path
         d="m 1456.07,1293.59 c 0,0.04 0,0.09 -0.01,0.13 10.93,51.31 23.82,121.12 37.14,197.82 -13.32,-76.78 -26.22,-146.67 -37.13,-197.95"
         style="fill:#949696;fill-opacity:1;fill-rule:nonzero;stroke:none"
         id="path234" /><path
         d="m 1456.06,1293.72 c -11.59,184.94 -21.76,544.27 74.61,563.17 2.56,0.5 5.02,0.75 7.4,0.75 5.16,0 9.92,-1.16 14.3,-3.35 -16.89,-108.46 -38.54,-243.87 -59.17,-362.75 -13.32,-76.7 -26.21,-146.51 -37.14,-197.82"
         style="fill:#0f191d;fill-opacity:1;fill-rule:nonzero;stroke:none"
         id="path236" /><path
         d="m 1722.75,2056.92 c 0,0 10.12,-549.27 2.13,-773.3 -8.31,-233.02 -89.71,-995.999 -89.71,-995.999 h -124.44 c 0,0 -4.57,749.369 -10.11,978.219 -6.04,249.48 -36.16,791.08 -36.16,791.08 h 258.29"
         style="fill:#17282f;fill-opacity:1;fill-rule:nonzero;stroke:none"
         id="path238" /><path
         d="m 2399.1,2179.55 -253.15,6.77 2.42,44.08 h 242.55 c 3.88,0 7.55,-0.77 10.85,-2.17 l -2.67,-48.68 m -7.74,58.97 h -242.55 l 5.45,99.19 h 143.32 c 14.52,0 27.04,11.87 27.84,26.38 0.8,14.51 -10.43,26.39 -24.94,26.39 h -143.32 l 2.95,53.68 h 253.52 l -11.17,-203.47 c -3.46,-1.4 -7.21,-2.17 -11.1,-2.17"
         style="fill:#264f8b;fill-opacity:1;fill-rule:nonzero;stroke:none"
         id="path240" /><path
         d="m 2401.77,2228.23 c -3.3,1.4 -6.97,2.17 -10.85,2.17 h -242.55 l 0.44,8.12 h 242.55 c 3.89,0 7.64,0.77 11.1,2.17 l -0.69,-12.46"
         style="fill:#30578e;fill-opacity:1;fill-rule:nonzero;stroke:none"
         id="path242" /><path
         d="m 2297.58,2337.71 h -143.32 l 2.9,52.77 h 143.32 c 14.51,0 25.74,-11.88 24.94,-26.39 -0.8,-14.51 -13.32,-26.38 -27.84,-26.38"
         style="fill:#1e4272;fill-opacity:1;fill-rule:nonzero;stroke:none"
         id="path244" /><path
         d="m 2280.37,2278.26 c -84.62,10.44 -169.26,20.89 -253.9,31.33 20.52,85.99 35.79,172.58 45.77,259.32 85.14,-10.47 170.27,-20.95 255.39,-31.43 -10.47,-86.73 -26.24,-173.29 -47.26,-259.22"
         style="fill:#406fbf;fill-opacity:1;fill-rule:nonzero;stroke:none"
         id="path246" /><path
         d="m 1659.12,337.191 -7.02,-51.671 h -151.38 l -4.1,46.109 162.5,5.562"
         style="fill:#406fbf;fill-opacity:1;fill-rule:nonzero;stroke:none"
         id="path248" /><path
         d="m 1754.64,2624.88 c 11.28,-17.59 24.17,-37.35 37.02,-55.6 13.11,-18.41 26.2,-36.81 39.99,-54.5 27.33,-35.42 56.31,-69.46 87.52,-97.69 7.74,-7.15 15.65,-13.77 23.63,-19.88 l 6.01,-4.52 c -0.55,0.32 -2.45,0.96 -3.52,1.21 -2.61,0.5 -3.88,0.05 -3.18,-0.31 1.52,-0.79 8.82,0.47 16.46,3.78 7.75,3.29 16.56,7.75 25.29,13.13 35.17,21.8 71.5,52.25 105.63,81.85 l 42.92,-34.65 c -26.63,-42.89 -55.92,-81.68 -96.17,-117.33 -10.23,-8.79 -21.18,-17.52 -34.37,-25.3 -13.26,-7.64 -28.33,-15.48 -50.45,-18.73 -11.05,-1.44 -24.43,-1.16 -38.24,3.24 -6.75,1.99 -13.87,5.56 -19.43,8.97 l -8.67,5.49 c -11.45,7.42 -22.34,15.23 -32.69,23.38 -41.35,32.76 -75.87,69.7 -107.7,108.12 -15.67,19.38 -30.87,38.99 -44.94,59.35 -14.26,20.58 -27.64,40.27 -40.89,63.19 l 95.78,56.8"
         style="fill:#f9a8b3;fill-opacity:1;fill-rule:nonzero;stroke:none"
         id="path250" /><path
         d="m 1610.32,2580.77 c -23.49,-98.49 154.72,-194.94 154.72,-194.94 l 115.75,135.62 c 0,0 -52.7,79.86 -118.26,142.78 -80.98,77.72 -134.32,-8.48 -152.21,-83.46"
         style="fill:#406fbf;fill-opacity:1;fill-rule:nonzero;stroke:none"
         id="path252" /><path
         d="m 1765.04,2385.83 c 0,0 -4.37,2.36 -11.65,6.73 -17.48,10.48 -51.72,32.5 -82.56,61.04 -33.32,30.83 -62.69,69.29 -62.64,109.04 0.01,6.02 0.69,12.07 2.13,18.13 12.91,54.1 44.27,114.04 91.15,114.04 18.1,0 38.51,-8.94 61.06,-30.58 65.56,-62.92 118.26,-142.78 118.26,-142.78 l -28.21,-33.05 -71.82,-84.15 -15.72,-18.42"
         style="fill:#5c85cc;fill-opacity:1;fill-rule:nonzero;stroke:none"
         id="path254" /><path
         d="m 2077.84,2471.86 27.31,87.73 71.9,-35.83 c 0,0 -10.48,-64.01 -62.81,-75.1 l -36.4,23.2"
         style="fill:#f9a8b3;fill-opacity:1;fill-rule:nonzero;stroke:none"
         id="path256" /><path
         d="m 2133.99,2583.91 64.84,-17.85 -21.78,-42.3 -71.9,35.83 28.84,24.32"
         style="fill:#f9a8b3;fill-opacity:1;fill-rule:nonzero;stroke:none"
         id="path258" /></g></g></svg>
